<svg xmlns="http://www.w3.org/2000/svg" viewBox="0 0 599.99 450.84"><defs><style>.cls-1{fill:#eaeaea;}.cls-2{fill:#fefefe;}.cls-3{fill:#fcfcfc;}.cls-4{fill:#fbfbfb;}.cls-5{fill:#ebebeb;}.cls-6{fill:#efefef;}.cls-7{fill:#010101;}</style></defs><g id="Layer_2" data-name="Layer 2"><g id="Layer_1-2" data-name="Layer 1"><path d="M292.62,450.83c-.67,0-1.72,0-2.4,0-8.67-.27-18.28-.46-27.16-.49-25.51-.06-47.83-9.48-69.41-21.29a30.1,30.1,0,0,0-23-3.18,522.32,522.32,0,0,1-91.17,12.76c-19.19,1-37.6.44-55.35-6.71C13.15,427.48,3.54,421,1,408a.19.19,0,0,0,0-.08,85,85,0,0,1,0-26.33c.72-17.88,12.29-30,23.12-42.24,22.27-25.14,48.2-46.25,75.36-65.85,6-4.33,9.27-9.2,10-16.82,2.6-28.83,9.12-56.64,25.31-81.23,31.4-47.73,75.68-72.72,132.88-75.79a372.92,372.92,0,0,1,57.14,1c25,2.49,48.2,11.3,69.43,24.78,6.73,4.27,13.05,5.63,21,3.54,23-6,46.21-11.24,69.82-14.58a234.35,234.35,0,0,1,29-1.64c13.88.16,27.69-3.24,41.68-.57a86.37,86.37,0,0,1,30.49,12.3c6.65,4.21,11.73,9.91,12.28,18.08h0c1.34,5.48,1.38,10.71,1.38,16.15.42,3.66-1.09,7.47-1.28,11.15.06,1.2-.71,3-.64,4.23-5,16-14.34,28.8-25.47,40.84a417.41,417.41,0,0,1-89.11,72.88c-11.93,7.3-16.25,17.11-18.85,29.26a168.89,168.89,0,0,1-32.08,69.25c-26.38,34-60.51,55.28-103,62.76C317.26,451.25,305.82,450,292.62,450.83Z"/><path class="cls-1" d="M560.73,0a.4.4,0,0,1,.39.39c.08,7-5.7,3-7.76,2.78-3-.26.22-1.71.55-2.91a.38.38,0,0,1,.36-.26Z"/><path class="cls-2" d="M111.64,296.76a.39.39,0,0,1,.6.18c5.75,15.91,4,28.37-7.75,40.06a25.06,25.06,0,0,0-6.65,24.71c3.74,13.09,13.56,19.68,28.06,20.15,45.47,1.48,88.36-10.45,130.58-25.28,65.08-22.86,127-52.19,183.81-91.69,17.39-12.09,33.95-25.33,47.93-41.46a71.64,71.64,0,0,0,11-16.2c7.91-16.77.81-31.75-17.17-36.59-10.87-2.92-22-3-32.87-1.43-8.42,1.19-14.26,0-18.23-7.94-1.35-2.7-3.71-4.89-6.25-8a.4.4,0,0,1,.2-.63,402.4,402.4,0,0,1,45.22-10c22.88-3.55,45.8-6.72,69-5.12a77.13,77.13,0,0,1,24.73,5.57c9.58,4,13.15,11.25,9.82,21.07-4.15,12.23-12,22.2-20.42,31.6-25.37,28.22-55.54,50.42-87.53,70.63-35.43,22.38-70.94,44.43-108.91,62.36-75.91,35.83-154.1,65-236.88,80.42a222.35,222.35,0,0,1-71.2,2.06,64.43,64.43,0,0,1-12.31-3.13c-13.52-5.35-16.24-13.18-9.33-26.57a146.83,146.83,0,0,1,26.23-35.84C71.05,327.76,90.48,311.92,111.64,296.76Z"/><path class="cls-2" d="M174,274.22c.06-58.56,35.44-99.7,83.58-108.14,34.54-6.06,69.22-5.77,100,14.8C385.2,199.34,399,226.2,404,258.8c1.64,10.53-2.71,13.8-9.95,18a810.12,810.12,0,0,1-181,77.88c-5.37,1.58-9,.84-12.88-4.12A123.33,123.33,0,0,1,174,274.22Z"/><path class="cls-3" d="M292.52,383.78c25.94-8.52,50.26-20.79,74.92-32.29,3.46-1.61,6.59-4.17,10.72-4.58a.39.39,0,0,1,.38.58c-13.91,24.41-55.82,41.29-84.26,38.26h-.11Q291.6,386.29,292.52,383.78Z"/><path class="cls-4" d="M460.55,216.36c-3.22-8.29-6.16-15.84-9.29-23.87a.39.39,0,0,1,.36-.53c6.75-.06,13.06-.2,19.65,1.17,7.21,1.51,5.34,4.28,2.86,8.2a74.73,74.73,0,0,1-12.94,15.18A.4.4,0,0,1,460.55,216.36Z"/><path class="cls-5" d="M126.17,348.73a.38.38,0,0,1,.65.16c.77,3.16,3.25,5.1,1.71,7.71-.76,1.29-3.58.77-4.67-.52C121.34,353.11,123.61,351.39,126.17,348.73Z"/><path class="cls-6" d="M567.08,3.29c3.82-2.36,6.43-.48,9,.86a.39.39,0,0,1-.12.73c-2.8.45-5.69,1-8.9-.93A.39.39,0,0,1,567.08,3.29Z"/><path class="cls-7" d="M84.59,339.56c-5.74,25.11-.43,43.46,24.51,54.77a.38.38,0,0,1-.1.73c-23.08,3.4-43.34,6.26-63.69-.41-4.23-1.39-5.69-3-3.29-7.47,9.87-18.36,23.33-33.46,41.95-48A.39.39,0,0,1,84.59,339.56Z"/><path class="cls-7" d="M515.57,210.11c4.35-23.84,1.16-43-22.44-53.51a.39.39,0,0,1,.08-.74c21-4,41-6.31,61,.32,2.95,1,5.45,2,3.25,6.17-9.84,18.67-23.6,33.83-41.27,48.14A.39.39,0,0,1,515.57,210.11Z"/><path d="M292.92,178.84c30,1.48,56.91,10.06,75.89,35C378,226,383.42,240.19,387.37,255c1.35,5.08-.13,7.42-4.4,9.68-46,24.45-92.37,48-141.78,64.9-7.26,2.49-14.78,4.34-21.76,7.42-7.16,3.14-10.35.3-14-5.63-10.48-17.12-17.38-35.94-16.64-55.48,1.68-45.05,23.5-83.18,73.88-94.72C272.63,178.87,282.7,178.53,292.92,178.84Z"/></g></g></svg>