<?xml version="1.0" encoding="utf-8"?>
<!-- Generator: Adobe Illustrator 24.1.3, SVG Export Plug-In . SVG Version: 6.00 Build 0)  -->
<svg version="1.1" id="Layer_1" xmlns="http://www.w3.org/2000/svg" xmlns:xlink="http://www.w3.org/1999/xlink" x="0px" y="0px"
	 viewBox="0 0 24.24 34.45" style="enable-background:new 0 0 24.24 34.45;" xml:space="preserve">
<style type="text/css">
	.st0{fill:#010101;}
	.st1{fill:#020201;}
	.st2{fill:#E04926;}
	.st3{fill:#020101;}
</style>
<g>
	<path class="st0" d="M-89.62,541.94c-3.14-1.42-6.55-1.09-9.84-1.39c-26.55-2.43-52.43-7.93-77.6-16.72
		c-0.41-0.14-0.8-0.35-1.57-0.69c4.29-1.61,8.24-3.09,12.18-4.57c1.61-0.15,3.13,0.14,4.68,0.62c20.86,6.44,42.18,10.7,63.88,12.83
		c11.65,1.14,23.37,2.11,35.1,1.59c29.17-1.29,57.83-5.68,85.82-14.2c35.78-10.89,68.71-27.48,98.88-49.52
		c13.54-9.89,26.3-20.73,38.09-32.66c4.63-4.68,8.92-9.71,13.29-14.65c2.62-2.96,2.65-3.3-0.39-5.74
		c-12.22-9.77-24.44-19.55-36.66-29.33c-37.61-30.09-75.23-60.17-112.83-90.28c-0.19-0.15-0.38-0.31-0.57-0.46
		c-4.82-3.84-4.79-3.8-9.12,0.43c-17.77,17.35-38.76,28.58-63.47,31.8c-24.79,3.23-49.08,1.17-71.92-10.11
		c-13.08-6.46-24.41-15.32-34.39-25.89c-13.68-14.5-23.72-31.22-28.08-50.75c-6.32-28.31-5-56.17,7.8-82.7
		c7.26-15.04,17.73-27.69,30.39-38.63c13.88-12,29.54-20.62,47.41-24.47c28.09-6.06,55.68-4.5,81.98,8.17
		c11.43,5.51,21.5,13.05,30.55,21.94c4.04,3.97,4.04,4.02,8.28,0.62C72.48,87.03,122.69,46.85,172.91,6.68
		c3.04-2.43,2.95-2.74,0.4-5.75c-19.8-23.29-43.03-42.59-68.64-59.1C83.81-71.6,61.68-82.43,38.34-90.8
		c-21.14-7.58-42.81-12.95-65.04-16c-9.43-1.3-18.87-2.5-28.43-2.66c-4.5-0.08-8.99-0.76-13.52-0.69
		c-31.46,0.53-62.29,5.13-92.42,14.25c-1.77,0.53-3.5,1.08-5.37,0.85c-3.94-1.48-7.88-2.95-12.32-4.62
		c12.21-4.53,24.22-7.84,36.38-10.59c17.14-3.88,34.5-6.45,52.06-7.44c0.58-0.03,1.25,0.09,1.44-0.72c0.73,0,1.47,0,2.2,0
		c0.65,0.64,1.46,0.28,2.2,0.38c0.74-0.1,1.56,0.26,2.2-0.38c8.8,0,17.61,0,26.41,0c0.65,0.64,1.46,0.28,2.2,0.38
		c0.74-0.1,1.56,0.26,2.2-0.38c0.49,0,0.98,0,1.47,0c3.13,1.52,6.58,0.96,9.85,1.26c69.56,6.28,130.91,32.21,184.42,76.9
		c15.43,12.89,29.28,27.34,42.19,42.75c2.11,2.51,1.71,3.6-0.71,5.53C142.4,42.58,99.14,77.24,55.85,111.87
		c-12.11,9.69-24.25,19.34-36.3,29.09c-1.89,1.52-2.85,1.94-4.78-0.32c-18.34-21.47-41.59-34.55-69.58-37.92
		c-37.33-4.49-69.31,7.19-95.18,34.59c-15.94,16.9-25.48,37.18-28.18,60.2c-4.32,36.9,6.87,68.73,33.87,94.39
		c22.71,21.59,50.27,31.44,81.46,29.68c31.06-1.74,56.95-14.86,77.38-38.4c2-2.3,3.04-2.24,5.31-0.41
		C74.9,326.93,130.02,371,185.17,415.06c2.38,1.9,3.81,3.04,1.09,6.29c-43.18,51.61-96.75,87.51-161.22,106.97
		c-21.16,6.39-42.79,10.44-64.83,12.35c-3.39,0.29-6.96-0.25-10.21,1.28c-0.73,0-1.47,0-2.2,0c-0.73-0.55-1.47-0.55-2.2,0
		c-1.47,0-2.93,0-4.4,0c-1.47-0.6-2.93-0.6-4.4,0c-3.91,0-7.83,0-11.74,0c-1.71-0.6-3.42-0.6-5.14,0c-1.22,0-2.45,0-3.67,0
		c-0.73-0.55-1.47-0.55-2.2,0C-87.18,541.94-88.4,541.94-89.62,541.94z"/>
	<path class="st1" d="M-388.34,258.77c-5.03-9.49-7.72-19.7-9.52-30.22c-0.41-2.42-0.01-5.02-1.39-7.25c0-6.36,0-12.72,0-19.08
		c0.97-5.03,1.81-10.1,2.95-15.09c1.77-7.76,4.08-15.35,7.96-22.37c1.59,1.52,1,3.39,0.76,5.16c-1.94,14.25-3.23,28.57-3.13,42.94
		c0.1,13.63,1.22,27.23,3.13,40.75C-387.34,255.38-386.76,257.25-388.34,258.77z"/>
	<path class="st0" d="M-186.29,293.77c-4.87-3.86-9.77-7.68-14.59-11.59c-1.65-1.34-2.54-1.65-4.28,0.37
		c-18.12,21.02-40.76,34.03-68.42,37.91c-29.36,4.12-56.04-2.57-80.12-19.79c-3.17-4.68-3.93-10.23-5.39-15.48
		c-6.18-22.18-10.16-44.75-11.13-67.79c-0.85-20.39,2.46-40.36,6.48-60.23c1.84-9.1,4.3-18.06,6.91-26.97
		c0.76-2.59,1.51-5.16,3.14-7.36c16.54-12.03,34.95-19,55.38-20.46c37.8-2.72,68.9,10.69,93.62,39.19c1.53,1.76,2.34,0.92,3.51-0.01
		c4.97-3.93,9.93-7.86,14.9-11.79c0.99,1.93-0.32,3.28-1.27,4.63c-10,14.26-16.19,30.03-18.74,47.23
		c-1.02,6.89-1.29,13.83-1.19,20.8c0.12,8.18-0.06,16.36,0.05,24.54c0.3,22.33,6.7,42.77,19.24,61.28
		C-187.1,289.88-185.21,291.33-186.29,293.77z"/>
	<path class="st0" d="M-123.41,79.57c9.27-7.52,18.5-15.08,27.81-22.54c20.84-16.71,41.71-33.39,62.63-50
		c1.72-1.37,1.25-2.23,0.2-3.51C-43.13-9.04-54.2-20.92-66.23-31.9c-20.14-18.39-42.16-34.13-66.18-47.08
		c-0.19-0.11-0.32-0.34-0.47-0.52c0.54-1.55,1.99-1.71,3.26-2c14.66-3.42,29.51-5.55,44.48-7.16c24.04-2.59,47.49,1.23,70.86,5.93
		c22.13,4.45,43.46,11.6,64.11,20.69c27.81,12.24,53.38,28.13,76.85,47.42c4.63,3.8,9.08,7.81,13.56,11.78
		c3.76,3.33,3.87,4.18,0.01,7.28c-15.63,12.56-31.31,25.06-46.96,37.59c-22.91,18.34-45.83,36.65-68.73,55
		c-0.29,0.23-0.57,0.46-0.86,0.69c-4.73,3.74-4.73,3.74-9.54-0.06C-3.27,83.86-22.89,75.46-45.2,74.02
		c-18.54-1.2-37.1-1.52-55.61,0.76c-6.46,0.8-12.65,2.73-18.86,4.59C-120.88,79.74-122.1,80.76-123.41,79.57z"/>
	<path class="st2" d="M-166.45-95.05c13.56-4.87,27.56-8.07,41.69-10.64c19.49-3.54,39.18-5.81,59-5.26
		c74.81,2.08,141.62,26.31,200.18,73.07c14.76,11.79,28.22,24.89,40.54,39.2c1.9,2.2,2.09,3.32-0.4,5.31
		C126.21,45.16,77.94,83.79,29.65,122.41c-3.15,2.52-6.39,4.94-9.38,7.64c-1.88,1.69-2.97,1.49-4.67-0.31
		c-13.53-14.28-29.39-25.25-48.45-30.38c-39.13-10.52-76.13-6.54-108.8,19.3c-23.99,18.98-39.79,43.37-43.79,74.1
		c-5.53,42.55,6.09,79.21,38.98,108.16c16.89,14.86,36.27,24.43,58.53,27.21c33.5,4.2,64.73-1.53,91.72-23.38
		c4.28-3.46,8.37-7.16,12.08-11.23c1.5-1.64,2.46-1.61,4.13-0.27c22.28,17.92,44.61,35.78,66.93,53.64
		c28.81,23.05,57.63,46.1,86.45,69.14c4.09,3.27,4.1,3.21,0.56,7.23C127.44,476.1,69.61,509.96,1.31,526.15
		c-24.8,5.88-50.01,8.87-75.5,8.29c-31.27-0.71-61.85-5.97-91.69-15.43c-0.22-0.07-0.39-0.28-0.58-0.43
		c3.71-1.73,7.38-3.57,11.35-4.66c1.86-0.52,3.62,0.01,5.39,0.51c19,5.32,38.33,8.79,57.99,10.52c6.32,0.56,12.66,1.3,18.98,1.28
		c30.12-0.12,59.62-4.61,88.56-12.98c18.26-5.28,35.95-12.05,52.95-20.47c25.08-12.42,48.31-27.72,69.5-46.08
		c8.23-7.13,16.25-14.44,23.38-22.7c2.71-3.14,2.8-3.6-0.61-6.33c-26.71-21.41-53.46-42.78-80.18-64.17
		c-19.18-15.36-38.39-30.69-57.56-46.06c-4.96-3.97-5.27-3.9-10,0.49c-18.39,17.06-40.09,26.74-65.1,28.83
		c-17.11,1.42-34.21,1.57-51.02-2.59c-18.62-4.61-34.96-13.45-49.13-26.54c-9.85-9.09-19.03-18.64-26.06-30.09
		c-9.03-14.71-14.7-30.56-16.07-47.85c-1.19-14.9-1.56-29.82,1.1-44.57c3.87-21.44,13.21-40.2,28.13-56.27
		c9.11-9.82,18.65-19.03,30.1-26.05c14.82-9.08,30.8-14.71,48.24-16.04c15.4-1.18,30.8-1.46,46.01,1.5
		c20.62,4.02,38.82,13.05,54.12,27.63c4.31,4.11,4.8,4.13,9.14,0.66c46-36.83,92.04-73.61,138.03-110.46
		c3.8-3.04,3.69-3.33,0.61-6.81c-16.76-18.89-36.37-34.45-57.35-48.25C62.42-76.37,16.82-93.3-32.59-99.9
		c-11.87-1.58-23.78-2.97-35.75-2.82c-27.37,0.36-54.28,4.31-80.68,11.59c-2,0.55-3.97,1.3-6.1,0.73
		C-159.09-91.47-162.74-93.33-166.45-95.05z"/>
	<path class="st0" d="M-155.11-90.39c20.53-6.02,41.42-10.24,62.77-11.9c69.44-5.38,132.86,13.02,191.61,49.17
		c23.73,14.61,45.29,32.01,63.88,52.91c3.6,4.05,3.32,3.06-0.55,6.16C115.37,43.77,68.1,81.51,20.92,119.36
		c-2.09,1.68-3.18,1.67-5.08-0.2c-16.27-16.05-35.65-26.22-58.16-30.34c-13.08-2.39-26.31-2.23-39.48-1.59
		c-22.39,1.09-42.94,8.14-60.64,21.99c-22.89,17.91-40.88,39.44-48.07,68.55c-3.87,15.65-3.83,31.52-3.04,47.37
		c1.09,21.99,8.15,42.16,21.69,59.62c17.99,23.19,39.68,41.4,69.08,48.48c16.59,3.99,33.41,3.84,50.27,2.66
		c18.67-1.3,35.69-7.45,51.32-17.64c6.28-4.09,11.99-8.87,17.29-14.13c1.66-1.64,2.69-1.68,4.53-0.2
		c47.38,37.99,94.8,75.94,142.3,113.77c2.95,2.35,2.53,3.63,0.28,6.08c-38.6,41.78-85.47,70.48-139.35,88.01
		c-22.8,7.42-46.22,11.82-70.11,14.14c-37.17,3.61-73.23-2.04-108.85-12.01c3.71-1.78,7.42-3.57,11.12-5.35
		c1.71-0.49,3.36-0.22,5.04,0.23c18.6,4.96,37.58,7.74,56.72,9.32c14.15,1.17,28.25,0.03,42.33-1.68
		c20.34-2.46,40.25-6.85,59.76-13.01c20.11-6.34,39.4-14.65,57.89-24.81c17.62-9.68,34.28-20.79,49.84-33.53
		c7.84-6.42,15.68-12.86,22.42-20.5c2.77-3.13,2.82-3.21-0.58-5.93c-27.76-22.26-55.56-44.46-83.34-66.7
		c-14.41-11.54-28.84-23.06-43.25-34.6c-3.96-3.17-4.35-3.13-8.02,0.07c-17.58,15.31-37.9,24.68-61.17,26.58
		c-18.26,1.49-36.65,2.12-54.82-1.2c-21.77-3.98-40.49-14.19-56.47-29.37c-9.93-9.43-19.65-19.1-27.03-30.8
		c-9.28-14.71-15.42-30.59-16.71-48.01c-1.3-17.55-1.97-35.19,0.85-52.65c3.29-20.38,11.97-38.41,25.6-53.96
		c10.26-11.7,21.11-22.81,34.26-31.33c14.91-9.65,31.13-15.96,48.95-17.23c17.31-1.24,34.7-1.9,51.93,0.8
		C-19.1,83.5-0.89,92.29,14.86,106.1c3.61,3.16,4.05,3.22,7.73,0.28C64.78,72.62,107,38.87,149.18,5.09
		c3.71-2.97,3.74-3.04,0.58-6.42c-12.59-13.45-27.05-24.7-42.08-35.24C81.67-54.8,53.5-68.84,23.37-78.81
		C1.85-85.93-20.24-90.7-42.8-93.31c-8.74-1.01-17.54-1.89-26.27-1.87c-9.6,0.02-19.24,0.94-28.83,2.17
		c-14.09,1.81-28.02,4.32-41.76,7.91c-1.47,0.38-2.88,0.38-4.33,0.04C-147.7-86.83-151.41-88.61-155.11-90.39z"/>
	<path class="st2" d="M-143.99-85.05c24.13-6.5,48.7-10.28,73.65-11.03c11.7-0.35,23.41,1.1,35.02,2.72
		c31.45,4.38,61.72,12.95,90.69,26.03c34.05,15.37,64.56,35.99,91.74,61.57c0.71,0.67,1.36,1.41,2.01,2.14
		c5.24,5.85,5.21,5.81-1.07,10.83C105.77,41,63.49,74.79,21.28,108.66c-1.99,1.6-3.03,1.77-5.02-0.05
		C-0.4,93.34-20,84.12-42.34,80.73c-7.77-1.18-15.59-1.06-23.41-1.04c-13.06,0.03-26.1-0.32-38.99,2.73
		c-19.61,4.64-36.74,13.77-51.27,27.62c-9.37,8.93-18.79,17.87-26.08,28.72c-12.3,18.32-18.95,38.44-19,60.54
		c-0.03,11.84-0.68,23.7,0.6,35.54c2.38,22.13,10.66,41.83,25.11,58.64c10.99,12.79,22.76,24.94,37.3,33.91
		c17.22,10.62,35.94,16.31,56.19,16.39c11.97,0.04,23.95,0.71,35.91-0.6c22.5-2.47,42.32-11.13,59.5-25.8
		c5.26-4.49,5.14-4.55,10.59-0.18c42.45,33.98,84.89,67.96,127.4,101.85c2.41,1.92,2.62,2.93,0.39,5.21
		c-26.48,26.99-57.2,47.92-91.22,64.16c-28.8,13.75-59.07,22.79-90.57,27.73c-13.03,2.04-26.19,3.6-39.36,3.5
		c-14.88-0.11-29.7-1.89-44.4-4.41c-10.22-1.75-20.32-4.01-30.34-6.63c3.65-1.96,7.16-4.18,11.11-5.55c3.12-0.41,6.04,0.68,9.01,1.3
		c16.16,3.41,32.45,5.85,48.97,6.57c20.42,0.89,40.39-2.47,60.26-6.54c26.24-5.38,51.37-14.2,75.4-25.95
		c25.04-12.24,48.18-27.48,69.33-45.67c2.78-2.39,5.53-4.81,8.23-7.3c3.12-2.87,3.2-2.83-0.25-5.61
		c-9.23-7.44-18.5-14.83-27.76-22.24c-28.92-23.14-57.86-46.26-86.76-69.42c-4.57-3.66-4.5-3.61-9.16-0.01
		c-17.35,13.4-36.8,21.46-58.78,23.32c-14.66,1.23-29.32,0.71-43.97,0.49c-10.01-0.15-19.91-2.08-29.5-5.22
		c-2-0.65-3.72-1.83-5.54-2.8c-7.31-4.82-13.8-10.7-20.66-16.1c-13.27-10.44-26.4-21.06-39.57-31.62c-0.94-0.76-1.77-1.65-2.66-2.48
		c0.09-1.79-1.26-2.86-2.14-4.12c-12.8-18.28-19.54-38.61-19.92-60.86c-0.24-14.01-0.75-28.05,0.51-42.07
		c1.72-19.11,8.18-36.45,18.99-52.24c1-1.47,2.58-2.67,2.57-4.71c8.18-6.68,16.31-13.42,24.54-20.04
		c11.92-9.59,23.91-19.11,35.89-28.64c0.75-0.59,1.63-1.02,2.45-1.52c26.81-9.87,54.64-8.22,82.23-6.16
		c21.81,1.63,41.1,10.92,57.84,25.11c1.72,1.46,2.65,1.58,4.49,0.11c39.74-31.88,79.55-63.69,119.35-95.5
		c1.49-1.19,2.87-1.94,0.58-4.05C103.7-35.25,60.87-60.11,12.32-74.93c-24.82-7.58-50.2-12.2-76.16-13.49
		c-15.83-0.79-31.39,1.69-46.93,4.13c-7.45,1.17-14.89,2.51-22.11,4.8C-136.82-80.86-140.33-83.1-143.99-85.05z"/>
	<path class="st2" d="M-353.7,122.83c-2.55,9.51-5.27,18.98-7.63,28.54c-4.86,19.7-7.8,39.77-8.19,60.01
		c-0.27,14.11,1.89,28.2,4.35,42.15c2.71,15.36,6.34,30.5,11.23,45.33c0.19,0.57,0.16,1.2,0.23,1.81c-4.16-2.63-7.97-5.68-11.13-9.5
		c-2.24-3.2-2.74-7.01-3.66-10.66c-5.17-20.55-8.37-41.38-9.11-62.58c-0.84-24.1,2.8-47.68,8.19-71.04
		c1.14-4.96,1.72-10.15,4.59-14.59C-361.63,128.54-357.85,125.47-353.7,122.83z"/>
	<path class="st3" d="M-364.82,132.3c-2.78,11.59-5.76,23.13-7.72,34.9c-4.16,24.9-5.62,49.81-2.08,74.98
		c2.33,16.55,5.77,32.81,9.79,48.99c-4.6-3.73-8.32-8.27-11.89-12.95c-3.94-10.37-4.97-21.35-6.38-32.21
		c-1.56-12.09-2.86-24.24-2.51-36.45c0.56-19.66,2.77-39.15,6.83-58.41c0.43-2.06,1.58-3.83,2.06-5.85
		C-373.14,140.62-369.39,136.09-364.82,132.3z"/>
	<path class="st2" d="M-376.72,145.31c-1.26,7.17-2.66,14.31-3.77,21.5c-3.42,22.24-5.25,44.53-2.84,67.07
		c1.54,14.43,3.43,28.77,6.71,42.92c0.1,0.45-0.06,0.95-0.1,1.43c-4.7-6-8.93-12.26-11.63-19.46c-0.8-7.99-1.63-15.98-2.39-23.98
		c-1.45-15.35-1.45-30.7,0-46.05c0.76-8,1.59-15.99,2.39-23.98C-385.65,157.57-381.43,151.29-376.72,145.31z"/>
	<path class="st0" d="M-123.41,343.96c26.81,9.88,54.64,8.22,82.23,6.17c21.82-1.63,41.1-10.93,57.84-25.11
		c1.72-1.46,2.65-1.58,4.49-0.11c39.74,31.88,79.54,63.69,119.37,95.47c1.91,1.53,2.42,2.36,0.29,4.31
		c-38.46,35.23-82.56,60.44-132.68,75c-20.07,5.83-40.54,9.45-61.35,11.56c-24.66,2.5-48.63-1.57-72.59-6.39
		c-2.38-0.48-4.7-1.22-7.05-1.83c14.07-8.15,27.95-16.6,40.99-26.36c21.92-16.41,41.48-35.24,58.9-56.35
		c1.54-1.86,1.34-2.72-0.57-4.24c-29.6-23.54-59.11-47.18-88.64-70.81C-122.65,344.89-123.01,344.4-123.41,343.96z"/>
</g>
</svg>
