<?xml version="1.0" encoding="utf-8"?>
<!-- Generator: Adobe Illustrator 24.1.3, SVG Export Plug-In . SVG Version: 6.00 Build 0)  -->
<svg version="1.1" id="Layer_1" xmlns="http://www.w3.org/2000/svg" xmlns:xlink="http://www.w3.org/1999/xlink" x="0px" y="0px"
	 viewBox="0 0 619.64 713.89" style="enable-background:new 0 0 619.64 713.89;" xml:space="preserve">
<style type="text/css">
	.st0{fill:#010101;}
</style>
<g>
	<path class="st0" d="M19.7,373.03c0-6.16,0-12.31,0-18.47c0.75-3.45,0.43-7.01,1.08-10.48c3.94-21.05,13.33-39.25,28.23-54.68
		c16.88-17.49,37.27-28.19,61.26-31.7c30.6-4.48,58.15,3.07,82.64,21.93c5.18,3.99,9.65,8.74,14.09,13.48
		c2.11,2.26,3.5,2.28,5.86,0.38c20.93-16.83,41.92-33.6,62.89-50.38c31.52-25.2,63.01-50.42,94.53-75.62
		c0.65-0.52,1.26-1.08,1.93-1.56c1.85-1.32,1.9-2.67,0.47-4.44c-4.32-5.34-8.81-10.53-13.52-15.51c-21-22.24-44.58-41.3-70.92-56.9
		c-15.61-9.24-31.9-17.08-48.9-23.45c-1.22-0.46-2.44-0.92-3.62-1.46c-0.95-0.43-2.26-0.81-2.17-2.04c0.09-1.16,1.36-1.54,2.35-1.9
		c6.91-2.47,13.96-4.53,21.04-6.42c16.03-4.28,32.32-7.23,48.82-8.87c4.78-0.47,9.63-0.18,14.41-0.83c0.71,0,1.42,0,2.13,0
		c0.63,0.61,1.42,0.27,2.13,0.36c0.72-0.09,1.5,0.25,2.13-0.36c8.52,0,17.05,0,25.57,0c0.63,0.61,1.42,0.27,2.13,0.36
		c0.72-0.09,1.5,0.25,2.13-0.36c0.47,0,0.95,0,1.42,0c5.83,0.84,11.74,0.44,17.59,1.09c18.51,2.06,36.7,5.69,54.58,10.92
		c21.34,6.24,41.7,14.82,61.28,25.27c20.44,10.91,39.35,24.08,56.96,39.13c13.8,11.79,26.44,24.71,37.97,38.73
		c0.53,0.64,1.09,1.25,1.57,1.92c1.55,2.17,1.49,3.97-0.79,5.77c-6.32,4.98-12.58,10.05-18.86,15.08
		c-46.98,37.54-93.91,75.15-140.88,112.69c-0.65,0.52-1.3,1.02-1.96,1.53c-1.92,1.47-3.57,1.43-5.22-0.52
		c-4.13-4.89-8.66-9.37-13.63-13.42c-16.82-13.68-35.94-21.6-57.6-23.52c-26.77-2.38-51.03,4.37-72.45,20.37
		c-23.69,17.7-37.89,41.49-41.63,70.87c-4.07,31.93,4.77,60.21,26.25,84.32c17.15,19.25,38.68,30.68,64.15,34
		c31.93,4.16,60.15-4.65,84.5-25.84c3.51-3.05,6.53-6.49,9.71-9.83c3-3.15,3.58-3.21,7.05-0.45c9.54,7.6,19.05,15.22,28.57,22.84
		c43.25,34.62,86.52,69.22,129.78,103.83c5.45,4.36,5.55,4.52,1.01,10.02c-18.04,21.85-38.79,40.77-61.91,57.12
		c-21.47,15.19-44.54,27.4-69.01,36.95c-26.5,10.35-53.94,16.92-82.26,19.69c-4.9,0.48-9.86,0.19-14.77,0.8c-0.71,0-1.42,0-2.13,0
		c-0.71-0.53-1.42-0.53-2.13,0c-1.42,0-2.84,0-4.26,0c-1.42-0.58-2.84-0.58-4.26,0c-3.79,0-7.58,0-11.37,0
		c-1.66-0.58-3.32-0.58-4.97,0c-1.18,0-2.37,0-3.55,0c-0.71-0.53-1.42-0.53-2.13,0c-1.18,0-2.37,0-3.55,0
		c-5.59-0.89-11.26-0.52-16.87-1.15c-22.55-2.5-44.55-7.47-66.03-14.73c-1.21-0.41-2.94-0.72-2.96-2.16
		c-0.03-1.67,1.84-1.96,3.11-2.43c11.56-4.27,22.87-9.11,33.81-14.76c25.05-12.92,48.13-28.67,69.07-47.6
		c11.52-10.42,22.25-21.56,32.16-33.49c2.89-3.48,2.85-3.6-0.64-6.38c-35.86-28.67-71.7-57.36-107.56-86.04
		c-16.82-13.45-33.62-26.93-50.46-40.35c-3.34-2.66-3.43-2.69-6.27,0.42c-13.54,14.81-29.55,25.79-48.91,31.53
		c-13.02,3.87-26.23,5.58-39.91,4.45c-22.81-1.88-43.04-9.9-60.47-24.58c-19.8-16.67-32.36-37.74-36.86-63.4
		C20.12,379.57,20.41,376.25,19.7,373.03z"/>
</g>
</svg>
