<svg id="Layer_1" data-name="Layer 1" xmlns="http://www.w3.org/2000/svg" viewBox="0 0 619.64 713.89"><defs><style>.cls-1{fill:#010101;}</style></defs><path class="cls-1" d="M19.7,373V354.56c.75-3.45.43-7,1.08-10.48A104.79,104.79,0,0,1,49,289.4c16.88-17.49,37.27-28.19,61.26-31.7,30.6-4.48,58.15,3.07,82.64,21.93A120.51,120.51,0,0,1,207,293.11c2.11,2.26,3.5,2.28,5.86.38q31.39-25.25,62.89-50.38,47.28-37.8,94.53-75.62c.65-.52,1.26-1.08,1.93-1.56,1.85-1.32,1.9-2.67.47-4.44-4.32-5.34-8.81-10.53-13.52-15.51a325,325,0,0,0-70.92-56.9,308,308,0,0,0-48.9-23.45c-1.22-.46-2.44-.92-3.62-1.46-.95-.43-2.26-.81-2.17-2s1.36-1.54,2.35-1.9c6.91-2.47,14-4.53,21-6.42a306.56,306.56,0,0,1,48.82-8.87c4.78-.47,9.63-.18,14.41-.83h2.13c.63.61,1.42.27,2.13.36.72-.09,1.5.25,2.13-.36h25.57c.63.61,1.42.27,2.13.36.72-.09,1.5.25,2.13-.36h1.42c5.83.84,11.74.44,17.59,1.09a319.82,319.82,0,0,1,172.82,75.32,308.75,308.75,0,0,1,38,38.73c.53.64,1.09,1.25,1.57,1.92,1.55,2.17,1.49,4-.79,5.77-6.32,5-12.58,10.05-18.86,15.08q-70.47,56.31-140.88,112.69c-.65.52-1.3,1-2,1.53-1.92,1.47-3.57,1.43-5.22-.52a105.53,105.53,0,0,0-71.23-36.94c-26.77-2.38-51,4.37-72.45,20.37-23.69,17.7-37.89,41.49-41.63,70.87-4.07,31.93,4.77,60.21,26.25,84.32,17.15,19.25,38.68,30.68,64.15,34,31.93,4.16,60.15-4.65,84.5-25.84,3.51-3.05,6.53-6.49,9.71-9.83,3-3.15,3.58-3.21,7-.45q14.31,11.4,28.57,22.84Q519.85,507,584.75,558.89c5.45,4.36,5.55,4.52,1,10A317.31,317.31,0,0,1,523.85,626a320.94,320.94,0,0,1-69,37,307.38,307.38,0,0,1-82.26,19.69c-4.9.48-9.86.19-14.77.8h-2.13a1.63,1.63,0,0,0-2.13,0h-4.26a5.43,5.43,0,0,0-4.26,0H333.66a7.32,7.32,0,0,0-5,0h-3.55a1.63,1.63,0,0,0-2.13,0h-3.55c-5.59-.89-11.26-.52-16.87-1.15a313.63,313.63,0,0,1-66-14.73c-1.21-.41-2.94-.72-3-2.16,0-1.67,1.84-2,3.11-2.43a300.16,300.16,0,0,0,33.81-14.76,323.51,323.51,0,0,0,69.07-47.6,326,326,0,0,0,32.16-33.49c2.89-3.48,2.85-3.6-.64-6.38q-53.79-43-107.56-86-25.23-20.18-50.46-40.35c-3.34-2.66-3.43-2.69-6.27.42-13.54,14.81-29.55,25.79-48.91,31.53A107.55,107.55,0,0,1,118,470.78c-22.81-1.88-43-9.9-60.47-24.58-19.8-16.67-32.36-37.74-36.86-63.4C20.12,379.57,20.41,376.25,19.7,373Z"/></svg>